<svg id="Layer_1" data-name="Layer 1" xmlns="http://www.w3.org/2000/svg" xmlns:xlink="http://www.w3.org/1999/xlink" viewBox="0 0 100 100"><defs><mask id="mask" x="40.52" y="0" width="19.86" height="12.2" maskUnits="userSpaceOnUse"><g id="path-6-inside-1"><path d="M42.84,1.35a.67.67,0,0,1,.1.23l.25.67a22.73,22.73,0,0,0,1,2.4,10.35,10.35,0,0,0,2.14,3.1,5.59,5.59,0,0,0,4,1.7,6.52,6.52,0,0,0,4-1.74,11,11,0,0,0,2.26-3,21.89,21.89,0,0,0,1.08-2.36c.11-.3.23-.59.37-.88A.94.94,0,0,1,58,1.7c0,.16-.12.39-.22.68a18.28,18.28,0,0,1-1,2.41,11,11,0,0,1-2.28,3.1,6.67,6.67,0,0,1-4.16,1.83A5.1,5.1,0,0,1,48,9.22a6.82,6.82,0,0,1-1.83-1.29A10.43,10.43,0,0,1,44,4.74a21.37,21.37,0,0,1-.92-2.46c-.09-.29-.16-.52-.2-.68A1,1,0,0,1,42.84,1.35Z" fill="#fff"/></g></mask><mask id="mask-2" x="73.21" y="90.06" width="21.32" height="10.29" maskUnits="userSpaceOnUse"><g id="path-22-inside-2"><path d="M93,93l.12-.82c0-.23,0-.45.07-.68s0-.44,0-.67a7,7,0,0,1-2.88,3.7,6.42,6.42,0,0,1-4.44.9L75.18,93.69l-.51,3.47,10.72,1.76a6.4,6.4,0,0,0,5-1.27A7.16,7.16,0,0,0,93,93Z" fill="#fff"/></g></mask></defs><title>logo</title><path d="M28.48,18.93A9.22,9.22,0,0,1,27.86,13a5,5,0,0,1,4-3.82" fill="#263238"/><path d="M31.24,9.32s-.32.31-.78.86A9.77,9.77,0,0,0,29,12.54a25.91,25.91,0,0,0-.93,2.69,8.88,8.88,0,0,1-.32,1.15,4.32,4.32,0,0,1,.15-1.19,16.39,16.39,0,0,1,.87-2.76,8.74,8.74,0,0,1,1.58-2.38A2.67,2.67,0,0,1,31.24,9.32Z" fill="#e7515b"/><path d="M72.44,18.93A9.22,9.22,0,0,0,73.06,13a5,5,0,0,0-4-3.82" fill="#263238"/><path d="M69.68,9.32a2.67,2.67,0,0,1,.91.73,8.74,8.74,0,0,1,1.58,2.38A16.39,16.39,0,0,1,73,15.19a4.31,4.31,0,0,1,.14,1.19,8.85,8.85,0,0,1-.31-1.15,25.91,25.91,0,0,0-.93-2.69,10.43,10.43,0,0,0-1.48-2.36C70,9.63,69.66,9.35,69.68,9.32Z" fill="#e7515b"/><path d="M28.48,19.44h0a24.19,24.19,0,0,1,5.4-11.65c3.32-3.7,8.57-6.62,17-6.5,8.8.14,13.93,3.42,17,7.35a22.92,22.92,0,0,1,4.28,11.78h0A9.71,9.71,0,0,1,71.74,24a9.34,9.34,0,0,1-1.6,3.16c-2.53,3.24-8,7.56-19.29,7.56s-17.13-3.94-20.11-7.12a9.21,9.21,0,0,1-2.09-3.77A9.63,9.63,0,0,1,28.48,19.44Z" fill="#f1f8fa" stroke="#000" stroke-width="1.5"/><path d="M42.84,1.35a.67.67,0,0,1,.1.23l.25.67a22.73,22.73,0,0,0,1,2.4,10.35,10.35,0,0,0,2.14,3.1,5.59,5.59,0,0,0,4,1.7,6.52,6.52,0,0,0,4-1.74,11,11,0,0,0,2.26-3,21.89,21.89,0,0,0,1.08-2.36c.11-.3.23-.59.37-.88A.94.94,0,0,1,58,1.7c0,.16-.12.39-.22.68a18.28,18.28,0,0,1-1,2.41,11,11,0,0,1-2.28,3.1,6.67,6.67,0,0,1-4.16,1.83A5.1,5.1,0,0,1,48,9.22a6.82,6.82,0,0,1-1.83-1.29A10.43,10.43,0,0,1,44,4.74a21.37,21.37,0,0,1-.92-2.46c-.09-.29-.16-.52-.2-.68A1,1,0,0,1,42.84,1.35Z" fill="#263238"/><g mask="url(#mask)"><path d="M42.84,1.35,44.8,0,40.52,1.57Zm.1.23-2.22.73,0,.09,0,.09Zm.25.67L41,3.15h0Zm1,2.4,2.09-1.08v0Zm2.14,3.1L47.94,6h0Zm4,1.7v2.48h.14Zm4-1.74,1.53,1.86h0Zm2.26-3-2-1.21h0Zm1.08-2.36,2.15,1,0,0v0Zm.37-.88,2.32.27L56,.33ZM58,1.7,55.84.77l0,.1,0,.1Zm-.22.68-2.19-.85h0Zm-1,2.41L54.71,3.62v0h0Zm-2.28,3.1L56,9.74h0ZM50.33,9.72l.06,2.48h.07ZM48,9.22l-1,2.26h0ZM46.17,7.93l-1.61,1.8h0ZM44,4.74l2.12-1h0ZM43.1,2.28l2.22-.77h0Zm-.2-.68L45.14.91l0-.1,0-.1Zm-2,1.11a1.78,1.78,0,0,1-.17-.4L45.17.85A3.59,3.59,0,0,0,44.8,0Zm-.12-.22.25.66,4.34-1.81L45.11.68Zm.25.67c.21.55.55,1.51,1.08,2.61l4.16-2.24a21.49,21.49,0,0,1-.9-2.19Zm1.06,2.57a12.81,12.81,0,0,0,2.65,3.83l3.18-3.62a8.17,8.17,0,0,1-1.64-2.37Zm2.63,3.81a7.81,7.81,0,0,0,5.61,2.39V7a3.28,3.28,0,0,1-2.38-1Zm5.75,2.39a8.82,8.82,0,0,0,5.42-2.36L52.81,5.84A4.22,4.22,0,0,1,50.18,7Zm5.42-2.36A13.58,13.58,0,0,0,58.66,5.9L54.57,3.51a8.42,8.42,0,0,1-1.76,2.33Zm2.77-3.66a25.87,25.87,0,0,0,1.19-2.62l-4.3-1.9a19.9,19.9,0,0,1-1,2.1Zm1.22-2.7c.08-.21.16-.42.26-.62L56,.33a8.94,8.94,0,0,0-.47,1.15Zm-4.13-2a1.51,1.51,0,0,1,.1-.42l4.32,1.87a4,4,0,0,0,.22-.91Zm0-.22-.18.56L60,3.23c.11-.31.2-.58.26-.8Zm-.18.57a17.28,17.28,0,0,1-.88,2.08L58.82,6A21.17,21.17,0,0,0,60,3.23ZM54.7,3.65A8.32,8.32,0,0,1,52.94,6L56,9.74a13,13,0,0,0,2.79-3.8ZM53,6a4.47,4.47,0,0,1-2.76,1.2l.27,4.95A8.89,8.89,0,0,0,56,9.74Zm-2.69,1.2A2.8,2.8,0,0,1,49,7l-1.91,4.52a7.19,7.19,0,0,0,3.34.72ZM49,7a4.57,4.57,0,0,1-1.21-.85L44.58,9.75a9.18,9.18,0,0,0,2.47,1.73Zm-1.19-.83A7.92,7.92,0,0,1,46.14,3.7L41.9,5.77a13,13,0,0,0,2.66,4ZM46.12,3.68a18.82,18.82,0,0,1-.8-2.17L40.88,3.05a23.87,23.87,0,0,0,1,2.75ZM45.31,1.5c-.08-.27-.14-.47-.17-.59L40.66,2.29c.05.19.13.46.23.78ZM45.07.71a2.07,2.07,0,0,1,.1.43l-4.65.43a3.69,3.69,0,0,0,.2.92Z"/></g><path d="M62.2,27.34a46.86,46.86,0,0,1-24.4.09,6.77,6.77,0,0,1-3.64-2.55,7.49,7.49,0,0,1-1.4-4.38v-.13a7.36,7.36,0,0,1,2-5.06,6.56,6.56,0,0,1,4.79-2.1h21a6.56,6.56,0,0,1,4.79,2.1,7.36,7.36,0,0,1,2,5.06,7.49,7.49,0,0,1-1.44,4.43A6.78,6.78,0,0,1,62.2,27.34Z" fill="#263238"/><path d="M44.05,19.41c.24,1.93-.24,3.59-1.06,3.7s-1.68-1.36-1.91-3.3.24-3.59,1.06-3.7S43.82,17.48,44.05,19.41Z" fill="#9d4b9c"/><path d="M58.41,19.41c-.24,1.93.24,3.59,1.06,3.7s1.68-1.36,1.91-3.3-.24-3.59-1.06-3.7S58.64,17.48,58.41,19.41Z" fill="#9d4b9c"/><path d="M53.87,20.89a1.39,1.39,0,0,1-.16,1,2.53,2.53,0,0,1-.75.9,2.58,2.58,0,0,1-1.42.46,2.76,2.76,0,0,1-1.48-.34,2.67,2.67,0,0,1-.91-.83,1.62,1.62,0,0,1-.35-1,6.18,6.18,0,0,0,.5.91,2.73,2.73,0,0,0,.87.72,2.67,2.67,0,0,0,1.35.3,2.59,2.59,0,0,0,1.29-.41,2.31,2.31,0,0,0,.73-.79A4.57,4.57,0,0,0,53.87,20.89Z" fill="#9d4b9c"/><path d="M49,47.12,29.7,67.66h0a16.37,16.37,0,0,1-5.36,3.81,15.67,15.67,0,0,1-12.66,0A16.47,16.47,0,0,1,6.3,67.72h0L4.86,66.2Zm0,0L24.2,20.82,4.83,41.42a18.26,18.26,0,0,0,0,24.78Z" fill="#9d4b9c" stroke="#000" stroke-width="1.5"/><path d="M24.55,62.05h0L44,41.4l5.4,5.7L30,67.75h0a16.8,16.8,0,0,1-5.43,3.86A16.06,16.06,0,0,1,18.1,73a15.87,15.87,0,0,1-6.43-1.34A16.67,16.67,0,0,1,6.22,67.8h0L4.78,66.29h0l-.56-.63a16.83,16.83,0,0,0,9.5,1.82A17.38,17.38,0,0,0,24.55,62.05Z" fill="#9d4b9c" stroke="#000" stroke-width="1.5"/><path d="M8.52,45.82a4.65,4.65,0,0,0,0,6.31l.35.37a4.05,4.05,0,0,0,6,0L34.92,31.13l-6.3-6.68Z" fill="#fff" opacity="0.4" style="isolation:isolate"/><path d="M70.35,67.49h0L51,47.1,75.8,20.75l19.33,20.4.49-.53-.49.53a18.28,18.28,0,0,1,.05,24.79h0l-1.43,1.51a15.91,15.91,0,0,1-23.4,0Z" fill="#654a9e" stroke="#000" stroke-width="1.5"/><path d="M75.57,61.94h0a17.25,17.25,0,0,0,10.85,5.39,16.82,16.82,0,0,0,9.49-1.85c-.19.21-.37.42-.57.63h0l-1.42,1.52h0a16.14,16.14,0,0,1-23.73,0h0L50.69,47.1l5.39-5.72Z" fill="#654a9e" stroke="#000" stroke-width="1.5"/><path d="M91.22,52.36l.35-.37a4.66,4.66,0,0,0,0-6.32L71.42,24.42,65.11,31.1,85.26,52.37a4.31,4.31,0,0,0,1.37,1,3.91,3.91,0,0,0,1.61.34,4,4,0,0,0,1.61-.34A4.27,4.27,0,0,0,91.22,52.36Z" fill="#fff" opacity="0.4" style="isolation:isolate"/><path d="M64.07,94.66h0a5.82,5.82,0,0,1-2.19-.85,6,6,0,0,1-1.72-1.68,6.45,6.45,0,0,1-1-2.24,6.82,6.82,0,0,1-.1-2.47l-.69-.11.69.11.12-.82h0a6.49,6.49,0,0,1,2.39-4.14A5.72,5.72,0,0,1,66,81.32h0l21.42,3.53h0a5.93,5.93,0,0,1,3.91,2.53,6.62,6.62,0,0,1,1.09,4.71l-.12.82a6.49,6.49,0,0,1-2.39,4.14,5.72,5.72,0,0,1-4.45,1.14Z" fill="#9d4b9c" stroke="#000" stroke-width="0.7"/><path d="M85.49,98.19h0l-10-1.65,2-13.34,10,1.65h0a5.93,5.93,0,0,1,3.91,2.53,6.62,6.62,0,0,1,1.09,4.71l-.12.82h0a6.49,6.49,0,0,1-2.39,4.14A5.72,5.72,0,0,1,85.49,98.19Z" fill="#654a9e" stroke="#000" stroke-width="0.7"/><path d="M64.4,92.41h0L74.65,94.1l-.37,2.49L64,94.9h0A6,6,0,0,1,61.75,94,6.4,6.4,0,0,1,60,92.28,6.76,6.76,0,0,1,59,90a7.07,7.07,0,0,1-.14-2.34A7.65,7.65,0,0,0,60.16,90,7,7,0,0,0,64.4,92.41Z" fill="#9d4b9c" stroke="#000" stroke-width="0.7"/><path d="M93.21,91.52c0,.23,0,.45-.07.68C93.17,92,93.19,91.75,93.21,91.52Z" fill="#e01f26"/><path d="M93,93l.12-.82c0-.23,0-.45.07-.68s0-.44,0-.67a7,7,0,0,1-2.88,3.7,6.42,6.42,0,0,1-4.44.9L75.18,93.69l-.51,3.47,10.72,1.76a6.4,6.4,0,0,0,5-1.27A7.16,7.16,0,0,0,93,93Z" fill="#654a9e"/><g mask="url(#mask-2)"><path d="M93,93l.92.15h0Zm.12-.82.92.15h0Zm.07-.68.93.07h0Zm0-.67.93,0-1.81-.3Zm-7.32,4.6-.14,1h0ZM75.18,93.69l.15-1-.92-.15-.15,1Zm-.51,3.47L73.75,97l-.14,1,.92.15Zm10.72,1.76.14-1h0Zm8.55-5.75.12-.82-1.84-.3-.12.82Zm.12-.82c0-.26.06-.52.08-.76l-1.87-.13c0,.2,0,.4,0,.59Zm.08-.77c0-.26,0-.51,0-.76l-1.86.07c0,.2,0,.39,0,.58Zm-1.81-1.06a6,6,0,0,1-2.47,3.17l1,1.71a8,8,0,0,0,3.28-4.21Zm-2.47,3.17a5.48,5.48,0,0,1-3.82.78l-.29,2a7.3,7.3,0,0,0,5.06-1ZM86,94.47,75.33,92.71l-.29,2,10.71,1.76Zm-11.78-.94L73.75,97l1.84.3.51-3.47Zm.27,4.61L85.24,99.9l.29-2L74.82,96.18ZM85.24,99.9a7.28,7.28,0,0,0,5.66-1.45l-1.09-1.61a5.49,5.49,0,0,1-4.28,1.1Zm5.66-1.45a8.16,8.16,0,0,0,3-5.28l-1.84-.3a6.17,6.17,0,0,1-2.29,4Z" fill="#654a9e" stroke="#000" stroke-width="0.7"/></g><path d="M65.05,86.72A1.63,1.63,0,0,1,64,86a1.82,1.82,0,0,1-.29-1.29l0-.2a1.72,1.72,0,0,1,.65-1.13,1.55,1.55,0,0,1,1.21-.31l21.79,3.59a1.63,1.63,0,0,1,1.07.69,1.83,1.83,0,0,1,.29,1.29l0,.2a1.75,1.75,0,0,1-.22.63,1.61,1.61,0,0,1-.43.5,1.56,1.56,0,0,1-.58.28,1.35,1.35,0,0,1-.63,0Z" fill="#fff" opacity="0.4" style="isolation:isolate"/><path d="M41.67,86.05h0a5.69,5.69,0,0,1-4.51-.84,6.3,6.3,0,0,1-2.63-4h0l-.18-.81a6.69,6.69,0,0,1,.79-4.78,6,6,0,0,1,3.75-2.78h0l21.16-5h0a5.76,5.76,0,0,1,4.52.84,6.36,6.36,0,0,1,2.63,4l.17.81h0a6.67,6.67,0,0,1-.79,4.77,6,6,0,0,1-3.75,2.79Z" fill="#9d4b9c" stroke="#000" stroke-width="0.7"/><path d="M66.58,78.26a6,6,0,0,1-3.75,2.79l-9.9,2.34L50.16,70.21l9.89-2.34-.15-.72.15.72a5.76,5.76,0,0,1,4.52.84,6.36,6.36,0,0,1,2.63,4h0l.17.81A6.67,6.67,0,0,1,66.58,78.26Z" fill="#654a9e" stroke="#000" stroke-width="0.7"/><path d="M41.2,83.83h0l10.13-2.39.52,2.46L41.72,86.29h0A5.92,5.92,0,0,1,37,85.42a6.53,6.53,0,0,1-2.68-3.9,7.17,7.17,0,0,0,2,1.67A6.85,6.85,0,0,0,41.2,83.83Z" fill="#9d4b9c" stroke="#000" stroke-width="0.7"/><path d="M67.71,71.86a6.36,6.36,0,0,1,.17.66A6.36,6.36,0,0,0,67.71,71.86Z" fill="#e01f26"/><path d="M62.36,78.83h0a7.11,7.11,0,0,0,4.09-2.74,7.85,7.85,0,0,0,1.19-2.43,6.91,6.91,0,0,1-.86,4.73,6.24,6.24,0,0,1-3.9,2.9L52.76,83.68l-.52-2.46Z" fill="#654a9e" stroke="#000" stroke-width="0.7"/><path d="M39.84,78.28a1.54,1.54,0,0,1-1.23-.23A1.75,1.75,0,0,1,37.89,77l0-.2a1.83,1.83,0,0,1,.22-1.3,1.62,1.62,0,0,1,1-.76l21.52-5.09a1.54,1.54,0,0,1,1.23.23,1.72,1.72,0,0,1,.72,1.08l0,.2a1.78,1.78,0,0,1-.21,1.3,1.74,1.74,0,0,1-.44.49,1.66,1.66,0,0,1-.59.27Z" fill="#fff" opacity="0.4" style="isolation:isolate"/><path d="M18.16,98.85h0a5.68,5.68,0,0,1-4.58-.3,6.23,6.23,0,0,1-3-3.63h0l-.25-.78h0a6.64,6.64,0,0,1,.28-4.84A6.1,6.1,0,0,1,14,86.09h0l20.51-7.46h0a5.65,5.65,0,0,1,4.57.3,6.19,6.19,0,0,1,3,3.63h0l.26.78h0a6.69,6.69,0,0,1-.29,4.84,6.07,6.07,0,0,1-3.43,3.21Z" fill="#9d4b9c" stroke="#000" stroke-width="0.7"/><path d="M42.38,83.34h0l-.26-.78Zm0,0a6.69,6.69,0,0,1-.29,4.84,6.07,6.07,0,0,1-3.43,3.21h0l-9.59,3.49L24.93,82.12m17.45,1.22L24.93,82.12m0,0,9.59-3.49-.23-.71.23.71a5.65,5.65,0,0,1,4.57.3,6.19,6.19,0,0,1,3,3.63Z" fill="#654a9e" stroke="#000" stroke-width="0.7"/><path d="M17.46,96.7h0l9.81-3.57L28,95.52l-9.81,3.57h0a6,6,0,0,1-4.75-.31,6.47,6.47,0,0,1-3.07-3.56,7.12,7.12,0,0,0,2.21,1.41A6.79,6.79,0,0,0,17.46,96.7Z" fill="#9d4b9c" stroke="#000" stroke-width="0.7"/><path d="M42.55,81.68l.24.64Z" fill="#e01f26"/><path d="M41.73,86a7.8,7.8,0,0,0,.93-2.56,6.88,6.88,0,0,1-.36,4.81,6.34,6.34,0,0,1-3.56,3.34L28.93,95.2l-.78-2.39L38,89.24h0A7.19,7.19,0,0,0,41.73,86Z" fill="#654a9e" stroke="#000"/><path d="M15.53,91.35a1.56,1.56,0,0,1-1.25-.08,1.72,1.72,0,0,1-.83-1l-.06-.19a1.87,1.87,0,0,1-.09-.67,1.84,1.84,0,0,1,.17-.65,1.71,1.71,0,0,1,.38-.54,1.74,1.74,0,0,1,.55-.34L35.26,80.3a1.56,1.56,0,0,1,1.25.08,1.72,1.72,0,0,1,.82,1l.06.19a1.94,1.94,0,0,1,.09.67,1.75,1.75,0,0,1-.55,1.19,1.58,1.58,0,0,1-.55.34Z" fill="#fff" opacity="0.4" style="isolation:isolate"/><path d="M38.4,98.43h0l21.69.28a5.8,5.8,0,0,0,4.25-1.8,6.52,6.52,0,0,0,1.8-4.45h0m-27.74,6,28.44-6h-.7m-27.74,6a5.65,5.65,0,0,1-2.28-.51,6,6,0,0,1-1.93-1.39,6.5,6.5,0,0,1-1.27-2.08A6.64,6.64,0,0,1,32.49,92h0V91.2h0a6.51,6.51,0,0,1,1.81-4.45,5.81,5.81,0,0,1,4.25-1.8l21.68.28h0a5.84,5.84,0,0,1,4.21,1.91,6.52,6.52,0,0,1,1.7,4.5Zm27.74-6v0Z" fill="#9d4b9c" stroke="#000" stroke-width="0.7"/><path d="M60.09,98.71h0a5.8,5.8,0,0,0,4.25-1.8,6.52,6.52,0,0,0,1.8-4.45h0m-6,6.25,6.75-6.24h-.7m-6,6.25-10.15-.13m10.15.13-10.15-.13m16.2-6.12v-.83m0,.83v-.83m0,0h0a6.52,6.52,0,0,0-1.7-4.5,5.84,5.84,0,0,0-4.21-1.91h0L50.1,85.09l-.16,13.49m16.21-7-16.21,7m10.14.88Z" fill="#654a9e" stroke="#000" stroke-width="0.7"/><path d="M38.43,96.16h0l10.37.13,0,2.53L38.4,98.68h0A5.93,5.93,0,0,1,36,98.15a6.18,6.18,0,0,1-2-1.45,6.81,6.81,0,0,1-1.33-2.15,7.22,7.22,0,0,1-.44-2.3,7.54,7.54,0,0,0,1.64,2.12A6.9,6.9,0,0,0,38.43,96.16Z" fill="#9d4b9c" stroke="#000" stroke-width="0.7"/><path d="M66.83,91c0,.22,0,.45,0,.68C66.85,91.41,66.85,91.18,66.83,91Z" fill="#e01f26"/><path d="M49.71,98.83l0-2.52,10.37.13h0a6.91,6.91,0,0,0,4.57-1.67,7.72,7.72,0,0,0,1.69-2.08,6.8,6.8,0,0,1-1.87,4.4A6,6,0,0,1,60.08,99h0Z" fill="#654a9e" stroke="#000" stroke-width="0.7"/><path d="M38.31,90.43a1.62,1.62,0,0,1-1.15-.52,1.77,1.77,0,0,1-.46-1.23v-.2a1.77,1.77,0,0,1,.5-1.22,1.56,1.56,0,0,1,1.16-.49l22,.28a1.62,1.62,0,0,1,1.15.52A1.85,1.85,0,0,1,62,88.8V89a1.89,1.89,0,0,1-.13.66,1.69,1.69,0,0,1-.36.55,1.5,1.5,0,0,1-.53.37,1.54,1.54,0,0,1-.63.12Z" fill="#fff" opacity="0.4" style="isolation:isolate"/></svg>