<svg id="Layer_1" data-name="Layer 1" xmlns="http://www.w3.org/2000/svg" xmlns:xlink="http://www.w3.org/1999/xlink" viewBox="0 0 97.5 96.35"><defs><mask id="mask" x="39.65" y="0" width="19.06" height="11.71" maskUnits="userSpaceOnUse"><g transform="translate(-1.25 -2)"><g id="path-6-inside-1"><path d="M43.13,3.3a1.47,1.47,0,0,1,.1.22l.23.64c.21.55.5,1.36.95,2.31a10.27,10.27,0,0,0,2.06,3,5.39,5.39,0,0,0,3.84,1.64A6.22,6.22,0,0,0,54.17,9.4a10.63,10.63,0,0,0,2.18-2.88,23.19,23.19,0,0,0,1-2.27,7,7,0,0,1,.36-.85,1.05,1.05,0,0,1-.06.24c0,.15-.11.37-.21.65a18.78,18.78,0,0,1-1,2.31,10.09,10.09,0,0,1-2.19,3,6.34,6.34,0,0,1-4,1.76,4.83,4.83,0,0,1-2.23-.48,6.69,6.69,0,0,1-1.76-1.24,9.88,9.88,0,0,1-2.06-3.06,21.59,21.59,0,0,1-.89-2.36c-.08-.28-.15-.5-.19-.66A.86.86,0,0,1,43.13,3.3Z" fill="#fff"/></g></g></mask><mask id="mask-2" x="71.02" y="86.44" width="20.5" height="9.91" maskUnits="userSpaceOnUse"><g transform="translate(-1.25 -2)"><g id="path-22-inside-2"><path d="M91.3,91.3l.11-.79c0-.22,0-.43.07-.65s0-.43,0-.64a6.66,6.66,0,0,1-2.76,3.54,6.06,6.06,0,0,1-4.26.87L74.18,91.94l-.49,3.33L84,97a6.18,6.18,0,0,0,4.77-1.23A6.92,6.92,0,0,0,91.3,91.3Z" fill="#fff"/></g></g></mask></defs><title>logo</title><path d="M29.34,20.17a8.82,8.82,0,0,1-.6-5.67,4.81,4.81,0,0,1,3.85-3.67" transform="translate(-1.25 -2)" fill="#263238"/><path d="M32,11s-.31.29-.75.82A9.85,9.85,0,0,0,29.82,14a21.24,21.24,0,0,0-.89,2.58,9.33,9.33,0,0,1-.3,1.1,3.68,3.68,0,0,1,.14-1.14,15,15,0,0,1,.83-2.64,8.09,8.09,0,0,1,1.52-2.29A2.45,2.45,0,0,1,32,11Z" transform="translate(-1.25 -2)" fill="#e7515b"/><path d="M71.54,20.17a8.82,8.82,0,0,0,.6-5.67,4.81,4.81,0,0,0-3.85-3.67" transform="translate(-1.25 -2)" fill="#263238"/><path d="M68.9,11a2.51,2.51,0,0,1,.86.7,8.09,8.09,0,0,1,1.52,2.29,15,15,0,0,1,.84,2.64,4,4,0,0,1,.14,1.14,7.75,7.75,0,0,1-.31-1.1A21.24,21.24,0,0,0,71.06,14a9.85,9.85,0,0,0-1.42-2.27C69.2,11.24,68.87,11,68.9,11Z" transform="translate(-1.25 -2)" fill="#e7515b"/><path d="M29.34,20.66h0A23.2,23.2,0,0,1,34.52,9.48c3.19-3.56,8.23-6.36,16.28-6.24,8.46.13,13.38,3.28,16.28,7A22.05,22.05,0,0,1,71.19,21.6h0A9.17,9.17,0,0,1,70.87,25a8.87,8.87,0,0,1-1.54,3c-2.43,3.11-7.68,7.26-18.52,7.26s-16.44-3.78-19.3-6.83a8.83,8.83,0,0,1-2-3.62A9.18,9.18,0,0,1,29.34,20.66Z" transform="translate(-1.25 -2)" fill="#f1f8fa" stroke="#000" stroke-width="1.5"/><path d="M43.13,3.3a1.47,1.47,0,0,1,.1.22l.23.64c.21.55.5,1.36.95,2.31a10.27,10.27,0,0,0,2.06,3,5.39,5.39,0,0,0,3.84,1.64A6.22,6.22,0,0,0,54.17,9.4a10.63,10.63,0,0,0,2.18-2.88,23.19,23.19,0,0,0,1-2.27,7,7,0,0,1,.36-.85,1.05,1.05,0,0,1-.06.24c0,.15-.11.37-.21.65a18.78,18.78,0,0,1-1,2.31,10.09,10.09,0,0,1-2.19,3,6.34,6.34,0,0,1-4,1.76,4.83,4.83,0,0,1-2.23-.48,6.69,6.69,0,0,1-1.76-1.24,9.88,9.88,0,0,1-2.06-3.06,21.59,21.59,0,0,1-.89-2.36c-.08-.28-.15-.5-.19-.66A.86.86,0,0,1,43.13,3.3Z" transform="translate(-1.25 -2)" fill="#263238"/><g mask="url(#mask)"><path d="M43.13,3.3,45,2,40.9,3.51Zm.1.22-2.14.7,0,.09,0,.08Zm.23.64L41.38,5h0Zm.95,2.31,2-1v0Zm2.06,3L48,7.72h0Zm3.84,1.64v2.38h.13ZM54.17,9.4l1.47,1.79h0Zm2.18-2.88-2-1.17h0Zm1-2.27,2.07.91,0,0v0Zm.36-.85L60,3.66,55.74,2.31Zm-.06.24-2.07-.9,0,.09,0,.1Zm-.21.65-2.1-.82h0Zm-1,2.31-2-1.12h0Zm-2.19,3,1.49,1.78h0Zm-4,1.76.07,2.38h.06Zm-2.23-.48L47.16,13h0ZM46.32,9.61l-1.54,1.73h0ZM44.26,6.55l2-1h0Zm-.89-2.36,2.13-.74h0Zm-.19-.66,2.15-.66,0-.09,0-.1ZM41.25,4.6a1.61,1.61,0,0,1-.16-.38l4.27-1.4A3,3,0,0,0,45,2Zm-.11-.21c.07.17.14.38.24.64l4.17-1.74c-.1-.26-.18-.47-.24-.64Zm.24.64c.2.53.52,1.45,1,2.51l4-2.15c-.4-.83-.65-1.53-.87-2.11Zm1,2.48a12.58,12.58,0,0,0,2.55,3.67L48,7.7a7.65,7.65,0,0,1-1.58-2.27Zm2.53,3.65a7.58,7.58,0,0,0,5.39,2.3V8.7a3.18,3.18,0,0,1-2.29-1Zm5.52,2.29a8.39,8.39,0,0,0,5.2-2.26L52.7,7.6a4,4,0,0,1-2.52,1.1Zm5.21-2.26a12.86,12.86,0,0,0,2.66-3.53L54.39,5.37A8.31,8.31,0,0,1,52.7,7.61ZM58.3,7.68a26,26,0,0,0,1.15-2.52L55.31,3.34a18.17,18.17,0,0,1-.91,2Zm1.18-2.6a4.35,4.35,0,0,1,.25-.59l-4-2.18c-.17.36-.32.73-.46,1.11Zm-4-1.93a1.45,1.45,0,0,1,.1-.41l4.14,1.79A3.25,3.25,0,0,0,60,3.66Zm0-.22c0,.1-.08.28-.17.54l4.2,1.63c.11-.3.19-.56.25-.76Zm-.18.55a15.13,15.13,0,0,1-.84,2l3.95,2.25a19.48,19.48,0,0,0,1.1-2.63Zm-.85,2a7.84,7.84,0,0,1-1.68,2.3l3,3.55A12.63,12.63,0,0,0,58.48,7.7ZM52.83,7.79A4.22,4.22,0,0,1,50.19,9l.25,4.75a8.52,8.52,0,0,0,5.36-2.35ZM50.25,9A2.71,2.71,0,0,1,49,8.68L47.16,13a6.93,6.93,0,0,0,3.22.69ZM49,8.68a4.58,4.58,0,0,1-1.16-.81l-3,3.49A8.93,8.93,0,0,0,47.16,13Zm-1.14-.79a7.64,7.64,0,0,1-1.57-2.34l-4.07,2a12.41,12.41,0,0,0,2.56,3.8ZM46.28,5.53a19.27,19.27,0,0,1-.78-2.08L41.25,4.93a22.61,22.61,0,0,0,1,2.64ZM45.5,3.44c-.08-.26-.14-.45-.17-.57L41,4.2c0,.18.12.44.22.74Zm-.23-.76a1.43,1.43,0,0,1,.09.41l-4.46.42a3.38,3.38,0,0,0,.19.88Z" transform="translate(-1.25 -2)"/></g><path d="M61.72,28.24a45,45,0,0,1-23.43.09,6.44,6.44,0,0,1-3.5-2.45,7.17,7.17,0,0,1-1.34-4.2v-.12a7.08,7.08,0,0,1,1.9-4.87,6.32,6.32,0,0,1,4.6-2H60.16a6.31,6.31,0,0,1,4.59,2,7.22,7.22,0,0,1,.53,9.11A6.41,6.41,0,0,1,61.72,28.24Z" transform="translate(-1.25 -2)" fill="#263238"/><path d="M44.29,20.63c.23,1.86-.23,3.45-1,3.56S41.66,22.88,41.43,21s.24-3.45,1-3.55S44.07,18.78,44.29,20.63Z" transform="translate(-1.25 -2)" fill="#f1f8fa"/><path d="M58.07,20.63c-.22,1.86.24,3.45,1,3.56s1.62-1.31,1.84-3.17-.23-3.45-1-3.55S58.3,18.78,58.07,20.63Z" transform="translate(-1.25 -2)" fill="#f1f8fa"/><path d="M53.72,22.05a1.42,1.42,0,0,1-.16,1,2.29,2.29,0,0,1-.72.85,2.48,2.48,0,0,1-1.36.45A2.73,2.73,0,0,1,50.06,24a2.53,2.53,0,0,1-.87-.79,1.54,1.54,0,0,1-.34-1,5,5,0,0,0,.48.88,2.66,2.66,0,0,0,.84.69,2.52,2.52,0,0,0,2.53-.1,2.43,2.43,0,0,0,.7-.76A4.92,4.92,0,0,0,53.72,22.05Z" transform="translate(-1.25 -2)" fill="#f1f8fa"/><path d="M49.06,47.23,30.51,67h0a15.82,15.82,0,0,1-5.14,3.66,15,15,0,0,1-12.16,0A15.81,15.81,0,0,1,8.05,67h0L6.67,65.56Zm0,0L25.23,22,6.63,41.76a17.55,17.55,0,0,0,0,23.8Z" transform="translate(-1.25 -2)" fill="#654a9e" stroke="#000" stroke-width="1.5"/><path d="M25.56,61.57h0L44.21,41.74l5.19,5.48L30.75,67h0a16.29,16.29,0,0,1-5.21,3.71,15.35,15.35,0,0,1-12.34,0A16.27,16.27,0,0,1,8,67.09H8L6.59,65.64h0L6.05,65a16.22,16.22,0,0,0,9.12,1.75A16.66,16.66,0,0,0,25.56,61.57Z" transform="translate(-1.25 -2)" fill="#654a9e" stroke="#000" stroke-width="1.5"/><path d="M10.18,46a4.48,4.48,0,0,0,0,6.07l.33.35a3.9,3.9,0,0,0,5.73,0l19.28-20.5-6.06-6.42Z" transform="translate(-1.25 -2)" fill="#fff" opacity="0.4" style="isolation:isolate"/><path d="M69.54,66.79h0L51,47.22l23.79-25.3L93.33,41.5l.47-.5-.47.5a17.55,17.55,0,0,1,0,23.8h0L92,66.75a15.26,15.26,0,0,1-22.46,0Z" transform="translate(-1.25 -2)" fill="#654a9e" stroke="#000" stroke-width="1.5"/><path d="M74.55,61.47h0A16.63,16.63,0,0,0,85,66.64a16.19,16.19,0,0,0,9.11-1.78c-.17.21-.35.41-.54.61h0l-1.37,1.45h0a15.47,15.47,0,0,1-22.78,0h0L50.66,47.22l5.18-5.5Z" transform="translate(-1.25 -2)" fill="#654a9e" stroke="#000" stroke-width="1.5"/><path d="M89.57,52.26l.34-.35a4.46,4.46,0,0,0,1.18-3,4.4,4.4,0,0,0-1.19-3L70.56,25.44,64.5,31.85,83.85,52.27a4.17,4.17,0,0,0,1.32.93,3.9,3.9,0,0,0,1.54.32,3.79,3.79,0,0,0,1.55-.33A3.88,3.88,0,0,0,89.57,52.26Z" transform="translate(-1.25 -2)" fill="#fff" opacity="0.4" style="isolation:isolate"/><path d="M63.51,92.87h0a5.55,5.55,0,0,1-2.11-.81,6,6,0,0,1-1.65-1.61,6.08,6.08,0,0,1-.94-2.15,6.52,6.52,0,0,1-.1-2.37l-.66-.11.66.11.12-.79h0a6.11,6.11,0,0,1,2.28-4,5.48,5.48,0,0,1,4.28-1.1h0L86,83.46h0a5.72,5.72,0,0,1,3.76,2.42,6.37,6.37,0,0,1,1,4.52l-.12.79a6.11,6.11,0,0,1-2.28,4,5.52,5.52,0,0,1-4.28,1.1Z" transform="translate(-1.25 -2)" fill="#654a9e" stroke="#000" stroke-width="0.7"/><path d="M84.07,96.26h0l-9.62-1.58,1.88-12.81L86,83.46h0a5.72,5.72,0,0,1,3.76,2.42,6.37,6.37,0,0,1,1,4.52l-.12.79h0a6.11,6.11,0,0,1-2.28,4A5.52,5.52,0,0,1,84.07,96.26Z" transform="translate(-1.25 -2)" fill="#654a9e" stroke="#000" stroke-width="0.7"/><path d="M63.82,90.71h0l9.84,1.63-.35,2.39-9.84-1.62h0a5.88,5.88,0,0,1-2.19-.85,6,6,0,0,1-1.71-1.67,6.43,6.43,0,0,1-1-2.24,6.74,6.74,0,0,1-.13-2.24,7.53,7.53,0,0,0,1.29,2.25A6.78,6.78,0,0,0,63.82,90.71Z" transform="translate(-1.25 -2)" fill="#654a9e" stroke="#000" stroke-width="0.7"/><path d="M91.48,89.86c0,.22,0,.43-.07.65C91.44,90.29,91.47,90.08,91.48,89.86Z" transform="translate(-1.25 -2)" fill="#e01f26"/><path d="M91.3,91.3l.11-.79c0-.22,0-.43.07-.65s0-.43,0-.64a6.66,6.66,0,0,1-2.76,3.54,6.06,6.06,0,0,1-4.26.87L74.18,91.94l-.49,3.33L84,97a6.18,6.18,0,0,0,4.77-1.23A6.92,6.92,0,0,0,91.3,91.3Z" transform="translate(-1.25 -2)" fill="#654a9e"/><g mask="url(#mask-2)"><path d="M91.3,91.3l.88.15h0Zm.11-.79.89.15h0Zm.07-.65.89.06h0Zm0-.64.9,0-1.74-.29Zm-7,4.41-.14.94h0ZM74.18,91.94l.13-.94-.88-.15-.14.94Zm-.49,3.33-.89-.14-.14.94.89.14ZM84,97l.14-.94h0Zm8.21-5.52.12-.79-1.77-.29-.12.78Zm.12-.79c0-.25.06-.5.07-.74l-1.79-.12c0,.19,0,.38,0,.57Zm.07-.74c0-.25,0-.5,0-.73l-1.79.06c0,.19,0,.38,0,.56Zm-1.73-1a5.73,5.73,0,0,1-2.38,3l.91,1.64a7.59,7.59,0,0,0,3.15-4Zm-2.38,3a5.21,5.21,0,0,1-3.66.75l-.28,1.88a6.92,6.92,0,0,0,4.85-1Zm-3.66.75L74.31,91,74,92.88l10.28,1.69Zm-11.31-.9-.49,3.34,1.77.29.49-3.33Zm.26,4.42,10.28,1.7L84.11,96l-10.29-1.7Zm10.28,1.7a7,7,0,0,0,5.44-1.4L88.21,95A5.25,5.25,0,0,1,84.11,96Zm5.44-1.4a7.85,7.85,0,0,0,2.91-5.06l-1.77-.3A5.85,5.85,0,0,1,88.21,95Z" transform="translate(-1.25 -2)" fill="#654a9e" stroke="#000" stroke-width="0.7"/></g><path d="M64.45,85.25a1.61,1.61,0,0,1-1-.66,1.78,1.78,0,0,1-.28-1.23l0-.2a1.68,1.68,0,0,1,.62-1.08,1.51,1.51,0,0,1,1.17-.3l20.91,3.44a1.59,1.59,0,0,1,1,.67,1.72,1.72,0,0,1,.28,1.23l0,.19a1.58,1.58,0,0,1-.21.61,1.74,1.74,0,0,1-.41.48,1.53,1.53,0,0,1-.56.27,1.56,1.56,0,0,1-.61,0Z" transform="translate(-1.25 -2)" fill="#fff" opacity="0.4" style="isolation:isolate"/><path d="M42,84.61h0a5.51,5.51,0,0,1-4.33-.8A6.14,6.14,0,0,1,35.14,80h0L35,79.22a6.37,6.37,0,0,1,.76-4.58A5.74,5.74,0,0,1,39.34,72h0l20.31-4.8h0A5.49,5.49,0,0,1,64,68a6.1,6.1,0,0,1,2.53,3.81l.16.78h0a6.41,6.41,0,0,1-.75,4.58,5.81,5.81,0,0,1-3.6,2.68Z" transform="translate(-1.25 -2)" fill="#654a9e" stroke="#000" stroke-width="0.7"/><path d="M65.92,77.13a5.81,5.81,0,0,1-3.6,2.68l-9.51,2.24L50.15,69.41l9.5-2.25-.14-.7.14.7A5.49,5.49,0,0,1,64,68a6.1,6.1,0,0,1,2.53,3.81h0l.16.78A6.41,6.41,0,0,1,65.92,77.13Z" transform="translate(-1.25 -2)" fill="#654a9e" stroke="#000" stroke-width="0.7"/><path d="M41.55,82.48h0l9.72-2.3.5,2.36-9.72,2.3h0a5.75,5.75,0,0,1-4.5-.83A6.31,6.31,0,0,1,35,80.26a6.94,6.94,0,0,0,2,1.6A6.53,6.53,0,0,0,41.55,82.48Z" transform="translate(-1.25 -2)" fill="#654a9e" stroke="#000" stroke-width="0.7"/><path d="M67,71c.06.21.12.42.17.64C67.12,71.4,67.07,71.19,67,71Z" transform="translate(-1.25 -2)" fill="#e01f26"/><path d="M61.87,77.68h0A6.84,6.84,0,0,0,65.79,75a7.43,7.43,0,0,0,1.14-2.33,6.57,6.57,0,0,1-.83,4.55A6,6,0,0,1,62.37,80l-9.72,2.3L52.15,80Z" transform="translate(-1.25 -2)" fill="#654a9e" stroke="#000" stroke-width="0.7"/><path d="M40.25,77.15a1.49,1.49,0,0,1-1.18-.22,1.67,1.67,0,0,1-.69-1l0-.19a1.71,1.71,0,0,1,.21-1.25,1.54,1.54,0,0,1,1-.73l20.66-4.89a1.51,1.51,0,0,1,1.18.23,1.65,1.65,0,0,1,.69,1l0,.19a1.72,1.72,0,0,1,0,.64,1.66,1.66,0,0,1-.22.61,1.64,1.64,0,0,1-1,.73Z" transform="translate(-1.25 -2)" fill="#fff" opacity="0.4" style="isolation:isolate"/><path d="M19.43,96.9h0A5.47,5.47,0,0,1,15,96.61a6,6,0,0,1-2.91-3.48h0l-.24-.76h0a6.36,6.36,0,0,1,.27-4.64,5.89,5.89,0,0,1,3.29-3.09h0l19.69-7.16h0a5.47,5.47,0,0,1,4.39.29,6,6,0,0,1,2.91,3.49h0l.24.75h0a6.36,6.36,0,0,1-.27,4.64,5.89,5.89,0,0,1-3.29,3.09Z" transform="translate(-1.25 -2)" fill="#654a9e" stroke="#000" stroke-width="0.7"/><path d="M42.68,82h0l-.24-.75Zm0,0a6.36,6.36,0,0,1-.27,4.64,5.89,5.89,0,0,1-3.29,3.09h0l-9.21,3.35-4-12.26M42.68,82,25.93,80.83m0,0,9.21-3.35-.22-.67.22.67a5.47,5.47,0,0,1,4.39.29,6,6,0,0,1,2.91,3.49Z" transform="translate(-1.25 -2)" fill="#654a9e" stroke="#000" stroke-width="0.7"/><path d="M18.76,94.84h0l9.42-3.43.74,2.29L19.5,97.12h0a5.67,5.67,0,0,1-4.56-.29A6.23,6.23,0,0,1,12,93.41a6.7,6.7,0,0,0,2.13,1.35A6.51,6.51,0,0,0,18.76,94.84Z" transform="translate(-1.25 -2)" fill="#654a9e" stroke="#000" stroke-width="0.7"/><path d="M42.85,80.42a5.48,5.48,0,0,1,.22.61A5.48,5.48,0,0,0,42.85,80.42Z" transform="translate(-1.25 -2)" fill="#e01f26"/><path d="M42.06,84.6a7.75,7.75,0,0,0,.9-2.46,6.63,6.63,0,0,1-.35,4.62A6.06,6.06,0,0,1,39.19,90l-9.42,3.43L29,91.1l9.41-3.43h0A6.92,6.92,0,0,0,42.06,84.6Z" transform="translate(-1.25 -2)" fill="#654a9e" stroke="#000"/><path d="M16.91,89.69a1.48,1.48,0,0,1-1.2-.07,1.66,1.66,0,0,1-.8-1l-.06-.18a2,2,0,0,1-.08-.64,1.72,1.72,0,0,1,.16-.63,1.76,1.76,0,0,1,.37-.52,1.51,1.51,0,0,1,.53-.32l20-7.29a1.52,1.52,0,0,1,1.2.08,1.68,1.68,0,0,1,.79,1l.06.18a2,2,0,0,1,.08.64,1.72,1.72,0,0,1-.16.63,1.55,1.55,0,0,1-.37.51,1.39,1.39,0,0,1-.53.33Z" transform="translate(-1.25 -2)" fill="#fff" opacity="0.4" style="isolation:isolate"/><path d="M38.87,96.5h0l20.81.26A5.58,5.58,0,0,0,63.76,95a6.29,6.29,0,0,0,1.74-4.28h0M38.87,96.5l27.3-5.73H65.5M38.87,96.5A5.51,5.51,0,0,1,36.68,96a5.59,5.59,0,0,1-1.85-1.35,6.05,6.05,0,0,1-1.23-2,6.45,6.45,0,0,1-.41-2.34h0v-.79h0a6.26,6.26,0,0,1,1.73-4.28A5.57,5.57,0,0,1,39,83.54l20.81.27h0a5.61,5.61,0,0,1,4,1.83A6.31,6.31,0,0,1,65.51,90ZM65.5,90.76v0Z" transform="translate(-1.25 -2)" fill="#654a9e" stroke="#000" stroke-width="0.7"/><path d="M59.68,96.76h0A5.58,5.58,0,0,0,63.76,95a6.29,6.29,0,0,0,1.74-4.28h0m-5.82,6,6.49-6H65.5m-5.82,6L50,96.64m9.73.12L50,96.64M65.5,90.76V90m0,.8V90m0,0h0a6.31,6.31,0,0,0-1.64-4.32,5.61,5.61,0,0,0-4-1.83h0l-9.74-.13-.14,13M65.51,90,50,96.64m9.72.84Z" transform="translate(-1.25 -2)" fill="#654a9e" stroke="#000" stroke-width="0.7"/><path d="M38.89,94.31h0l10,.13,0,2.42-10-.13h0a5.77,5.77,0,0,1-2.28-.5,6,6,0,0,1-1.92-1.4,6.18,6.18,0,0,1-1.27-2.07,6.57,6.57,0,0,1-.43-2.2,7,7,0,0,0,1.58,2A6.56,6.56,0,0,0,38.89,94.31Z" transform="translate(-1.25 -2)" fill="#654a9e" stroke="#000" stroke-width="0.7"/><path d="M66.15,89.32c0,.21,0,.43,0,.65C66.18,89.75,66.17,89.53,66.15,89.32Z" transform="translate(-1.25 -2)" fill="#e01f26"/><path d="M49.72,96.88l0-2.43,10,.13h0A6.65,6.65,0,0,0,64.09,93a7.13,7.13,0,0,0,1.62-2,6.5,6.5,0,0,1-1.79,4.23A5.79,5.79,0,0,1,59.68,97h0Z" transform="translate(-1.25 -2)" fill="#654a9e" stroke="#000" stroke-width="0.7"/><path d="M38.78,88.81a1.49,1.49,0,0,1-1.1-.5,1.73,1.73,0,0,1-.45-1.18v-.19a1.74,1.74,0,0,1,.48-1.17,1.48,1.48,0,0,1,1.11-.47L60,85.57a1.57,1.57,0,0,1,1.1.5,1.7,1.7,0,0,1,.44,1.18v.2a1.72,1.72,0,0,1-.12.63,1.75,1.75,0,0,1-.35.53,1.49,1.49,0,0,1-.51.36,1.39,1.39,0,0,1-.6.11Z" transform="translate(-1.25 -2)" fill="#fff" opacity="0.4" style="isolation:isolate"/></svg>