<svg xmlns="http://www.w3.org/2000/svg" viewBox="0 0 100 100"><title>spiral9</title><path d="M47.25,44.34a2.72,2.72,0,0,0-1.34-2.72,4.87,4.87,0,0,0-4.27-.31,7.2,7.2,0,0,0-3.83,4.42,9.55,9.55,0,0,0,.92,7.47,11.13,11.13,0,0,0,7.18,5.24A12.82,12.82,0,0,0,56,56.23a15.78,15.78,0,0,0,6.25-10.5,18.4,18.4,0,0,0-3.46-13.4,19.4,19.4,0,0,0-12.9-7.69A20.84,20.84,0,0,0,30.06,29.3a24.82,24.82,0,0,0-8.63,16.43A27.17,27.17,0,0,0,45.91,75.42a29.11,29.11,0,0,0,21.68-7.17,33.41,33.41,0,0,0,11-22.5A36.16,36.16,0,0,0,70.4,20.33,35.77,35.77,0,0,0,45.91,7.63a37.22,37.22,0,0,0-27.42,9.65A42.34,42.34,0,0,0,5.08,45.73a44.93,44.93,0,0,0,10.5,31.48A43.7,43.7,0,0,0,45.91,92.39,45.55,45.55,0,0,0,79.15,80.24,50.59,50.59,0,0,0,95,45.73" fill="none" stroke="#a5a5a5" stroke-width="4.5"/></svg>