<svg xmlns="http://www.w3.org/2000/svg" viewBox="0 0 125 100"><title>wave-normal-3</title><path d="M118.08,10.7c-4.55,0-7.5,32.35-8.32,38.53-.84,5.66-3.21,35.22-5.63,35.22S99.26,54.6,98.5,49.23c-.73-5.53-3.74-38.53-8.32-38.53S82.92,43,81.85,49.23C81,55.72,78.7,84.46,76.3,84.46s-4.74-28.71-5.63-35.22c-1.38-8.88-3.75-38.54-8.33-38.54S55.41,40.5,54,49.24c-.94,6.51-3.22,35.22-5.63,35.22S44,55,42.77,49.24C41.48,41,39,10.7,34.45,10.7s-6.8,28.76-8.33,38.54c-1.2,9.12-3.21,35.22-5.63,35.22s-5.63-35.22-5.63-35.22S11.2,10.7,6.7,10.7a1.3,1.3,0,0,0-1.22,1.4c0,.62.57,2.19,1.22,2.24,2.41,0,5.63,35.41,5.63,35.41s3.74,38.53,8.32,38.53S27.55,58.87,29,49.75C30.14,41,32.19,14.33,34.6,14.33S39,44,40.22,49.75c1.45,9.33,3.76,38.53,8.33,38.53s6.8-28.8,8.32-38.53c1.34-5.92,3.22-35.42,5.63-35.42s4.87,30,5.63,35.42c1.42,9.19,3.75,38.53,8.32,38.53s7-29.9,8.33-38.53c.78-5.3,3.21-35.41,5.62-35.41s5,31.47,5.63,35.41c1.11,6.86,3.74,38.53,8.32,38.53s7.36-32.93,8.32-38.53c.75-4.94,3.22-35.41,5.63-35.41.74-.06,1.29-1.76,1.22-2.47a1.31,1.31,0,0,0-1.22-1.17Z" fill="#a5a5a5" stroke="#a5a5a5" stroke-miterlimit="10" stroke-width="1.5"/></svg>